0
SECTION
2
HEADER
9
$INSUNITS
70
4
9
$ACADVER
1
AC1014
9
$HANDSEED
5
FFFF
0
ENDSEC
0
SECTION
2
TABLES
0
TABLE
2
VPORT
5
8
100
AcDbSymbolTable
0
ENDTAB
0
TABLE
2
LTYPE
5
5
100
AcDbSymbolTable
0
LTYPE
5
14
100
AcDbSymbolTableRecord
100
AcDbLinetypeTableRecord
2
BYBLOCK
70
0
0
LTYPE
5
15
100
AcDbSymbolTableRecord
100
AcDbLinetypeTableRecord
2
BYLAYER
70
0
0
ENDTAB
0
TABLE
2
LAYER
5
2
100
AcDbSymbolTable
70
2
0
LAYER
5
50
100
AcDbSymbolTableRecord
100
AcDbLayerTableRecord
2
0
70
0
6
CONTINUOUS
0
ENDTAB
0
TABLE
2
STYLE
5
3
100
AcDbSymbolTable
70
1
0
STYLE
5
11
100
AcDbSymbolTableRecord
100
AcDbTextStyleTableRecord
2
STANDARD
70
0
0
ENDTAB
0
TABLE
2
VIEW
5
6
100
AcDbSymbolTable
70
0
0
ENDTAB
0
TABLE
2
UCS
5
7
100
AcDbSymbolTable
70
0
0
ENDTAB
0
TABLE
2
APPID
5
9
100
AcDbSymbolTable
70
2
0
APPID
5
12
100
AcDbSymbolTableRecord
100
AcDbRegAppTableRecord
2
ACAD
70
0
0
ENDTAB
0
TABLE
2
DIMSTYLE
5
A
100
AcDbSymbolTable
70
1
0
ENDTAB
0
TABLE
2
BLOCK_RECORD
5
1
100
AcDbSymbolTable
70
1
0
BLOCK_RECORD
5
1F
100
AcDbSymbolTableRecord
100
AcDbBlockTableRecord
2
*MODEL_SPACE
0
BLOCK_RECORD
5
1B
100
AcDbSymbolTableRecord
100
AcDbBlockTableRecord
2
*PAPER_SPACE
0
ENDTAB
0
ENDSEC
0
SECTION
2
BLOCKS
0
BLOCK
5
20
100
AcDbEntity
100
AcDbBlockBegin
2
*MODEL_SPACE
0
ENDBLK
5
21
100
AcDbEntity
100
AcDbBlockEnd
0
BLOCK
5
1C
100
AcDbEntity
100
AcDbBlockBegin
2
*PAPER_SPACE
0
ENDBLK
5
1D
100
AcDbEntity
100
AcDbBlockEnd
0
ENDSEC
0
SECTION
2
ENTITIES
0
CIRCLE
5
100
100
AcDbEntity
8
0
100
AcDbCircle
10
35.00000037252903
20
-19.999999776482547
30
-3.6739404339393763e-15
40
1.5000000223517418
210
1.2246467991473532e-16
220
0
230
-1
0
ARC
5
101
100
AcDbEntity
8
0
100
AcDbCircle
10
-36.131879003819108
20
44.432329965146913
30
-3.673940433939557e-15
40
1.4999999999993197
210
1.2246467991473204e-16
220
-1.3743436083147312e-30
230
-1
100
AcDbArc
50
-23.157199287852539
51
216.84274616159416
0
ARC
5
102
100
AcDbEntity
8
0
100
AcDbCircle
10
-42.94301533943225
20
34.046838084333793
30
-3.673940433939389e-15
40
1.4999999999999825
210
1.2246467991473569e-16
220
-7.4572007446673772e-31
230
-1
100
AcDbArc
50
-116.5786132815616
51
123.42138671843442
0
ARC
5
103
100
AcDbEntity
8
0
100
AcDbCircle
10
-27.056983468474876
20
35.953161915666172
30
-3.6739404339393834e-15
40
1.499999999999835
210
1.2246467991473539e-16
220
-1.8488927466117464e-31
230
-1
100
AcDbArc
50
66.842800712135912
51
306.8428007121509
0
CIRCLE
5
104
100
AcDbEntity
8
0
100
AcDbCircle
10
-34.999999403953538
20
35
30
-3.6739404339393779e-15
40
4.0000000000000044
210
1.2246467991473532e-16
220
0
230
-1
0
ARC
5
105
100
AcDbEntity
8
0
100
AcDbCircle
10
-27.056983468474876
20
35.953161915666172
30
-3.6739404339393834e-15
40
1.499999999999835
210
1.2246467991473539e-16
220
-1.8488927466117464e-31
230
-1
100
AcDbArc
50
66.842800712135912
51
306.8428007121509
0
ARC
5
106
100
AcDbEntity
8
0
100
AcDbCircle
10
-35.95316131961971
20
42.943015935478641
30
-3.6739404339395144e-15
40
1.500000000000091
210
1.2246467991473286e-16
220
-1.0970096963229695e-30
230
-1
100
AcDbArc
50
-203.15719928789906
51
36.842746161642829
0
ARC
5
107
100
AcDbEntity
8
0
100
AcDbCircle
10
-25.567669438806639
20
36.131879599865613
30
-3.6739404339393921e-15
40
1.499998763203827
210
1.2246467991473552e-16
220
-5.4850484816148486e-31
230
-1
100
AcDbArc
50
-113.15717201255612
51
126.84274616161775
0
ARC
5
108
100
AcDbEntity
8
0
100
AcDbCircle
10
-42.94301533943225
20
34.046838084333793
30
-3.673940433939389e-15
40
1.4999999999999825
210
1.2246467991473569e-16
220
-7.4572007446673772e-31
230
-1
100
AcDbArc
50
-116.5786132815616
51
123.42138671843442
0
CIRCLE
5
109
100
AcDbEntity
8
0
100
AcDbCircle
10
35.00000037252903
20
-19.999999776482547
30
-3.6739404339393763e-15
40
1.5000000223517418
210
1.2246467991473532e-16
220
0
230
-1
0
ARC
5
110
100
AcDbEntity
8
0
100
AcDbCircle
10
-34.046837488287366
20
27.056984064521288
30
-3.6739404339394252e-15
40
1.5000000000002149
210
1.2246467991473421e-16
220
-4.6838616247497576e-31
230
-1
100
AcDbArc
50
-23.157199287870402
51
216.84280071217421
0
ARC
5
111
100
AcDbEntity
8
0
100
AcDbCircle
10
-34.046837488287366
20
27.056984064521288
30
-3.6739404339394252e-15
40
1.5000000000002149
210
1.2246467991473421e-16
220
-4.6838616247497576e-31
230
-1
100
AcDbArc
50
-23.157199287870402
51
216.84280071217421
0
CIRCLE
5
112
100
AcDbEntity
8
0
100
AcDbCircle
10
-34.999999403953538
20
35
30
-3.6739404339393779e-15
40
4.0000000000000044
210
1.2246467991473532e-16
220
0
230
-1
0
ARC
5
113
100
AcDbEntity
8
0
100
AcDbCircle
10
-44.440341771190219
20
33.957319612726415
30
-3.6739404339393495e-15
40
1.5000000000000224
210
1.2246467991473419e-16
220
2.206345344290017e-30
230
-1
100
AcDbArc
50
63.421386718435222
51
303.4213867184373
0
ARC
5
114
100
AcDbEntity
8
0
100
AcDbCircle
10
-35.95316131961971
20
42.943015935478641
30
-3.6739404339395144e-15
40
1.500000000000091
210
1.2246467991473286e-16
220
-1.0970096963229695e-30
230
-1
100
AcDbArc
50
-203.15719928789906
51
36.842746161642829
0
ARC
5
115
100
AcDbEntity
8
0
100
AcDbCircle
10
-44.440341771190219
20
33.957319612726415
30
-3.6739404339393495e-15
40
1.5000000000000224
210
1.2246467991473419e-16
220
2.206345344290017e-30
230
-1
100
AcDbArc
50
63.421386718435222
51
303.4213867184373
0
CIRCLE
5
116
100
AcDbEntity
8
0
100
AcDbCircle
10
35.00000037252903
20
-19.999999776482547
30
-3.6739404339393763e-15
40
1.5000000223517418
210
1.2246467991473532e-16
220
0
230
-1
0
ARC
5
117
100
AcDbEntity
8
0
100
AcDbCircle
10
-35.95316131961971
20
42.943015935478641
30
-3.6739404339395144e-15
40
1.500000000000091
210
1.2246467991473286e-16
220
-1.0970096963229695e-30
230
-1
100
AcDbArc
50
-203.15719928789906
51
36.842746161642829
0
ARC
5
118
100
AcDbEntity
8
0
100
AcDbCircle
10
-25.567669438806639
20
36.131879599865613
30
-3.6739404339393921e-15
40
1.499998763203827
210
1.2246467991473552e-16
220
-5.4850484816148468e-31
230
-1
100
AcDbArc
50
-113.15717201255612
51
126.84274616161775
0
ARC
5
119
100
AcDbEntity
8
0
100
AcDbCircle
10
-33.868119804088025
20
25.567670034853158
30
-3.6739404339395704e-15
40
1.4999987632033329
210
1.2246467991473098e-16
220
-1.6516775203064931e-30
230
-1
100
AcDbArc
50
-203.15717201253091
51
36.842746161600658
0
CIRCLE
5
120
100
AcDbEntity
8
0
100
AcDbCircle
10
35.00000037252903
20
-19.999999776482547
30
-3.6739404339393763e-15
40
1.5000000223517418
210
1.2246467991473532e-16
220
0
230
-1
0
ARC
5
121
100
AcDbEntity
8
0
100
AcDbCircle
10
-33.868119804088025
20
25.567670034853158
30
-3.6739404339395704e-15
40
1.4999987632033329
210
1.2246467991473098e-16
220
-1.6516775203064931e-30
230
-1
100
AcDbArc
50
-203.15717201253091
51
36.842746161600658
0
ARC
5
122
100
AcDbEntity
8
0
100
AcDbCircle
10
-35.95316131961971
20
42.943015935478641
30
-3.6739404339395144e-15
40
1.500000000000091
210
1.2246467991473286e-16
220
-1.0970096963229695e-30
230
-1
100
AcDbArc
50
-203.15719928789906
51
36.842746161642829
0
LWPOLYLINE
5
123
100
AcDbEntity
8
0
100
AcDbPolyline
90
27
70
1
43
0.0
10
-43.757359983432963
20
-35.000000521540642
10
-41.117336472003466
20
-35.000000521540642
42
0.18017715023950512
10
-39.154886886745942
20
-34.26909541275225
10
21.502735528246042
20
18.191260657877571
42
-0.13934107313548211
10
26.458361918787023
20
20.501060735761154
10
33.742434663297452
20
21.671027565794454
42
0.28552626524414132
10
37.727606948853236
20
25.134769013146126
10
38.158190442909294
20
26.531508850871077
42
-0.30636819374805607
10
42.523731740395803
20
30.041475208223499
10
44.202173035121831
20
30.180443026965023
42
0.28053356958751757
10
48.406173878793133
20
33.243158327907054
10
54.629396801453474
20
48.204837205781743
42
0.5859166796982177
10
52.47395538302419
20
50.948945609043363
10
36.373043917818798
20
48.432673360290238
42
0.28284887178567453
10
32.388278419312833
20
45.033040435169831
10
31.901640307556576
20
43.530290973651802
42
-0.30885617360870826
10
27.441535787661373
20
40.079505238777948
10
26.084961198757917
20
39.998864932034259
42
0.28555977620854017
10
21.774009737330857
20
36.949216085512894
10
18.976123898005646
20
30.309296302761474
42
-0.14084720049776883
10
15.508293139628835
20
26.009062436357429
10
-47.87373340674808
20
-18.506638747032859
42
0.24431979831077721
10
-50.00000074505806
20
-22.598296184934526
10
-50.00000074505806
20
-32.171573366992135
42
0.19891236737965248
10
-49.414214307431159
20
-33.585786929365227
10
-48.585787152882645
20
-34.414214083913734
42
0.19891236737965326
10
-47.171573590509546
20
-35.000000521540642
0
LWPOLYLINE
5
124
100
AcDbEntity
8
0
100
AcDbPolyline
90
6
70
1
43
0.0
10
48.992609720553737
20
44.901741264891569
10
46.848580985393838
20
39.747133765298081
42
-0.57151829681406208
10
45.141795051132341
20
39.509753973455574
10
41.740679063061059
20
43.797758407289258
42
-0.5746654426864517
10
42.369744220231766
20
45.407192370034622
10
47.914888943462941
20
46.273795435794398
42
-0.5859166919002039
0
CIRCLE
5
125
100
AcDbEntity
8
0
100
AcDbCircle
10
-40.000000596046448
20
-25.00000037252903
30
0
40
1.5000000223517418
210
0
220
0
230
1
0
CIRCLE
5
126
100
AcDbEntity
8
0
100
AcDbCircle
10
-28.000000417232513
20
-14.499999816396373
30
-6.1232340869800799e-16
40
1.4999999999999996
210
0
220
0
230
1
0
ENDSEC
0
SECTION
2
OBJECTS
0
DICTIONARY
5
C
100
AcDbDictionary
3
ACAD_GROUP
350
D
3
ACAD_MLINESTYLE
350
17
0
DICTIONARY
5
D
100
AcDbDictionary
0
DICTIONARY
5
1A
330
C
100
AcDbDictionary
0
DICTIONARY
5
17
100
AcDbDictionary
0
ENDSEC
0
EOF
