0
SECTION
2
HEADER
9
$INSUNITS
70
4
9
$ACADVER
1
AC1014
9
$HANDSEED
5
FFFF
0
ENDSEC
0
SECTION
2
TABLES
0
TABLE
2
VPORT
5
8
100
AcDbSymbolTable
0
ENDTAB
0
TABLE
2
LTYPE
5
5
100
AcDbSymbolTable
0
LTYPE
5
14
100
AcDbSymbolTableRecord
100
AcDbLinetypeTableRecord
2
BYBLOCK
70
0
0
LTYPE
5
15
100
AcDbSymbolTableRecord
100
AcDbLinetypeTableRecord
2
BYLAYER
70
0
0
ENDTAB
0
TABLE
2
LAYER
5
2
100
AcDbSymbolTable
70
2
0
LAYER
5
50
100
AcDbSymbolTableRecord
100
AcDbLayerTableRecord
2
0
70
0
6
CONTINUOUS
0
ENDTAB
0
TABLE
2
STYLE
5
3
100
AcDbSymbolTable
70
1
0
STYLE
5
11
100
AcDbSymbolTableRecord
100
AcDbTextStyleTableRecord
2
STANDARD
70
0
0
ENDTAB
0
TABLE
2
VIEW
5
6
100
AcDbSymbolTable
70
0
0
ENDTAB
0
TABLE
2
UCS
5
7
100
AcDbSymbolTable
70
0
0
ENDTAB
0
TABLE
2
APPID
5
9
100
AcDbSymbolTable
70
2
0
APPID
5
12
100
AcDbSymbolTableRecord
100
AcDbRegAppTableRecord
2
ACAD
70
0
0
ENDTAB
0
TABLE
2
DIMSTYLE
5
A
100
AcDbSymbolTable
70
1
0
ENDTAB
0
TABLE
2
BLOCK_RECORD
5
1
100
AcDbSymbolTable
70
1
0
BLOCK_RECORD
5
1F
100
AcDbSymbolTableRecord
100
AcDbBlockTableRecord
2
*MODEL_SPACE
0
BLOCK_RECORD
5
1B
100
AcDbSymbolTableRecord
100
AcDbBlockTableRecord
2
*PAPER_SPACE
0
ENDTAB
0
ENDSEC
0
SECTION
2
BLOCKS
0
BLOCK
5
20
100
AcDbEntity
100
AcDbBlockBegin
2
*MODEL_SPACE
0
ENDBLK
5
21
100
AcDbEntity
100
AcDbBlockEnd
0
BLOCK
5
1C
100
AcDbEntity
100
AcDbBlockBegin
2
*PAPER_SPACE
0
ENDBLK
5
1D
100
AcDbEntity
100
AcDbBlockEnd
0
ENDSEC
0
SECTION
2
ENTITIES
0
CIRCLE
5
100
100
AcDbEntity
8
0
100
AcDbCircle
10
-10.000000149011614
20
-10.000000149011576
30
0
40
1.5000000223517418
210
0
220
0
230
1
0
LINE
5
101
100
AcDbEntity
8
0
100
AcDbLine
10
-2.1055728537035683
20
-4.4472114497327375
30
0
11
-2.0000000335276127
21
-4.2360658093808468
31
0
0
CIRCLE
5
102
100
AcDbEntity
8
0
100
AcDbCircle
10
10.000000149011614
20
-10.000000149011576
30
0
40
1.5000000223517418
210
0
220
0
230
1
0
CIRCLE
5
103
100
AcDbEntity
8
0
100
AcDbCircle
10
-10.000000149011614
20
10.000000149011576
30
0
40
1.4999999999999991
210
0
220
0
230
1
0
LINE
5
104
100
AcDbEntity
8
0
100
AcDbLine
10
-2.0000000335276127
20
0.23607016051986562
30
0
11
-5.1055728984070843
21
6.4472158902788479
31
0
0
LINE
5
105
100
AcDbEntity
8
0
100
AcDbLine
10
2.8944272341302408
20
-2.4472114265944356
30
0
11
6.8944272811519554
21
5.5527887007690246
31
0
0
CIRCLE
5
106
100
AcDbEntity
8
0
100
AcDbCircle
10
10.000000149011614
20
10.000000149011576
30
0
40
1.5000000223517418
210
0
220
0
230
1
0
LINE
5
107
100
AcDbEntity
8
0
100
AcDbLine
10
-2.019578629473235
20
-4.1969086171634018
30
0
11
-0.89442720581796142
21
-6.4472114832189931
31
0
0
ARC
5
108
100
AcDbEntity
8
0
100
AcDbCircle
10
-3.000000044703484
20
-3.999997854232813
30
0
40
1.0000000000000013
210
0
220
0
230
1
100
AcDbArc
50
153.43494882292191
51
348.64363329063912
0
CIRCLE
5
109
100
AcDbEntity
8
0
100
AcDbCircle
10
-15.000000372529076
20
15.000000223517382
30
-6.1232340869800769e-16
40
1.5000000223517418
210
0
220
0
230
1
0
CIRCLE
5
110
100
AcDbEntity
8
0
100
AcDbCircle
10
-15.000000521540642
20
15.000000223517382
30
-1.3136467361393845e-14
40
1.5000000223517418
210
1.2246467991473532e-16
220
0
230
-1
0
LINE
5
111
100
AcDbEntity
8
0
100
AcDbLine
10
-3.118034020708004
20
-1.999997820118864
30
0
11
-6.894427280406922
21
5.5527886992789277
31
0
0
LINE
5
112
100
AcDbEntity
8
0
100
AcDbLine
10
-0.88196604012110291
20
-1.9999978225678383
30
0
11
-8.3299961373128895e-09
21
-0.23606575898561744
31
0
0
LINE
5
113
100
AcDbEntity
8
0
100
AcDbLine
10
5.1055728991521239
20
6.4472158917689093
30
0
11
2.000000031664968
21
0.23607018266403657
31
0
0
LWPOLYLINE
5
114
100
AcDbEntity
8
0
100
AcDbPolyline
90
2
70
1
43
0.0
10
0.89450439502060608
20
1.5529430477155546
42
-8.6316732164623205e-05
10
0.89434998697907409
20
1.5526342316325525
0
LINE
5
115
100
AcDbEntity
8
0
100
AcDbLine
10
-8.3299961373128895e-09
20
-0.23606575898561744
30
0
11
1.1055728254743156
21
-2.4472114265942579
31
0
0
ARC
5
116
100
AcDbEntity
8
0
100
AcDbCircle
10
0
20
-5.9999978840351353
30
0
40
1.0000000149011528
210
0
220
0
230
1
100
AcDbArc
50
-153.43494901382303
51
26.565051367974959
0
CIRCLE
5
117
100
AcDbEntity
8
0
100
AcDbCircle
10
14.999999627470935
20
-14.999999776482582
30
-6.1232340869800769e-16
40
1.5000000223517418
210
0
220
0
230
1
0
LINE
5
118
100
AcDbEntity
8
0
100
AcDbLine
10
-2.0000000335276127
20
0.23607016051986562
30
0
11
-0.89442720532130982
21
2.4472158353513684
31
0
0
LINE
5
119
100
AcDbEntity
8
0
100
AcDbLine
10
-0.88196604012110291
20
-1.9999978225678383
30
0
11
0.89442720283790522
21
-5.5527842788911386
31
0
0
LINE
5
120
100
AcDbEntity
8
0
100
AcDbLine
10
-3.8944272357034002
20
-3.5527842587328529
30
0
11
-3.118034020708004
21
-1.999997820118864
31
0
0
ARC
5
121
100
AcDbEntity
8
0
100
AcDbCircle
10
0
20
2.0000022351741897
30
0
40
1.0000000149011581
210
0
220
-0
230
1
100
AcDbArc
50
26.565051177078264
51
153.43494895019251
0
ARC
5
122
100
AcDbEntity
8
0
100
AcDbCircle
10
2.0000000298023224
20
-1.999997824430455
30
0
40
1.000000014901169
210
0
220
0
230
1
100
AcDbArc
50
206.56505117706769
51
333.43494882292094
0
CIRCLE
5
123
100
AcDbEntity
8
0
100
AcDbCircle
10
15.000000372529087
20
-14.9999997764826
30
2.4492936530406933e-15
40
1.5000000223517418
210
-1.2246467991473532e-16
220
1.4997597826618576e-32
230
-1
0
LINE
5
124
100
AcDbEntity
8
0
100
AcDbLine
10
0.89442720432791456
20
2.4472158373381525
30
0
11
2.000000031664968
21
0.23607018266403657
31
0
0
ARC
5
125
100
AcDbEntity
8
0
100
AcDbCircle
10
-6.0000000894069672
20
6.000002294778799
30
0
40
1.0000000000000107
210
0
220
-0
230
1
100
AcDbArc
50
26.565051177083486
51
206.56505117707255
0
ARC
5
126
100
AcDbEntity
8
0
100
AcDbCircle
10
6.0000000894069672
20
6.000002294778799
30
0
40
0.99999999999998301
210
0
220
0
230
1
100
AcDbArc
50
-26.565051081619369
51
153.43494872746501
0
CIRCLE
5
127
100
AcDbEntity
8
0
100
AcDbCircle
10
-22.000000327825546
20
20.500000305473804
30
0
40
1.4999999999999991
210
0
220
0
230
1
0
CIRCLE
5
128
100
AcDbEntity
8
0
100
AcDbCircle
10
22.000000327825546
20
20.500000305473804
30
0
40
1.4999999999999991
210
0
220
0
230
1
0
CIRCLE
5
129
100
AcDbEntity
8
0
100
AcDbCircle
10
22.000000327825546
20
-20.500000305473804
30
0
40
1.4999999999999991
210
0
220
0
230
1
0
CIRCLE
5
130
100
AcDbEntity
8
0
100
AcDbCircle
10
-22.000000327825546
20
-20.500000305473804
30
0
40
1.4999999999999991
210
0
220
0
230
1
0
ARC
5
131
100
AcDbEntity
8
0
100
AcDbCircle
10
0
20
-40
30
0
40
21.898129234882383
210
0
220
-0
230
1
100
AcDbArc
50
41.552612278802094
51
138.44738772119791
0
ARC
5
132
100
AcDbEntity
8
0
100
AcDbCircle
10
-40.000000596046448
20
2.2351740014414645e-07
30
7.1805571076435871e-15
40
19.780945969965284
210
0
220
0
230
1
100
AcDbArc
50
-48.715289415161863
51
48.715288795695677
0
ARC
5
133
100
AcDbEntity
8
0
100
AcDbCircle
10
40.000000074505778
20
-5.2154068915418446e-07
30
7.1805571076435871e-15
40
19.780946185718769
210
0
220
0
230
1
100
AcDbArc
50
131.28470934877339
51
228.71528920580519
0
ARC
5
134
100
AcDbEntity
8
0
100
AcDbCircle
10
7.4505783764777789e-08
20
40
30
7.1805571076435871e-15
40
21.898129290638554
210
0
220
0
230
1
100
AcDbArc
50
221.55261218248401
51
318.44738762487981
0
ARC
5
135
100
AcDbEntity
8
0
100
AcDbCircle
10
-22.000000327825546
20
20.500000305473804
30
0
40
7.5
210
-7.1647306849748535e-16
220
-6.3505565278792802e-16
230
1
100
AcDbArc
50
41.552612182483976
51
228.71528879569561
0
ARC
5
136
100
AcDbEntity
8
0
100
AcDbCircle
10
-22.000000327825546
20
-20.500000305473804
30
0
40
7.500000335919931
210
6.316986350123113e-16
220
-7.1943456438600097e-16
230
1
100
AcDbArc
50
131.28471058483814
51
318.44738772119797
0
ARC
5
137
100
AcDbEntity
8
0
100
AcDbCircle
10
22.000000327825546
20
-20.500000305473804
30
0
40
7.4999999999999956
210
0
220
0
230
1
100
AcDbArc
50
-138.44738772119797
51
48.715289205805234
0
ARC
5
138
100
AcDbEntity
8
0
100
AcDbCircle
10
22.000000327825546
20
20.500000305473804
30
0
40
7.5
210
-6.3169864778501627e-16
220
7.1943461023687619e-16
230
1
100
AcDbArc
50
-48.715290651226582
51
138.44738762487984
0
ENDSEC
0
SECTION
2
OBJECTS
0
DICTIONARY
5
C
100
AcDbDictionary
3
ACAD_GROUP
350
D
3
ACAD_MLINESTYLE
350
17
0
DICTIONARY
5
D
100
AcDbDictionary
0
DICTIONARY
5
1A
330
C
100
AcDbDictionary
0
DICTIONARY
5
17
100
AcDbDictionary
0
ENDSEC
0
EOF
