0
SECTION
2
HEADER
9
$INSUNITS
70
4
9
$ACADVER
1
AC1014
9
$HANDSEED
5
FFFF
0
ENDSEC
0
SECTION
2
TABLES
0
TABLE
2
VPORT
5
8
100
AcDbSymbolTable
0
ENDTAB
0
TABLE
2
LTYPE
5
5
100
AcDbSymbolTable
0
LTYPE
5
14
100
AcDbSymbolTableRecord
100
AcDbLinetypeTableRecord
2
BYBLOCK
70
0
0
LTYPE
5
15
100
AcDbSymbolTableRecord
100
AcDbLinetypeTableRecord
2
BYLAYER
70
0
0
ENDTAB
0
TABLE
2
LAYER
5
2
100
AcDbSymbolTable
70
2
0
LAYER
5
50
100
AcDbSymbolTableRecord
100
AcDbLayerTableRecord
2
0
70
0
6
CONTINUOUS
0
ENDTAB
0
TABLE
2
STYLE
5
3
100
AcDbSymbolTable
70
1
0
STYLE
5
11
100
AcDbSymbolTableRecord
100
AcDbTextStyleTableRecord
2
STANDARD
70
0
0
ENDTAB
0
TABLE
2
VIEW
5
6
100
AcDbSymbolTable
70
0
0
ENDTAB
0
TABLE
2
UCS
5
7
100
AcDbSymbolTable
70
0
0
ENDTAB
0
TABLE
2
APPID
5
9
100
AcDbSymbolTable
70
2
0
APPID
5
12
100
AcDbSymbolTableRecord
100
AcDbRegAppTableRecord
2
ACAD
70
0
0
ENDTAB
0
TABLE
2
DIMSTYLE
5
A
100
AcDbSymbolTable
70
1
0
ENDTAB
0
TABLE
2
BLOCK_RECORD
5
1
100
AcDbSymbolTable
70
1
0
BLOCK_RECORD
5
1F
100
AcDbSymbolTableRecord
100
AcDbBlockTableRecord
2
*MODEL_SPACE
0
BLOCK_RECORD
5
1B
100
AcDbSymbolTableRecord
100
AcDbBlockTableRecord
2
*PAPER_SPACE
0
ENDTAB
0
ENDSEC
0
SECTION
2
BLOCKS
0
BLOCK
5
20
100
AcDbEntity
100
AcDbBlockBegin
2
*MODEL_SPACE
0
ENDBLK
5
21
100
AcDbEntity
100
AcDbBlockEnd
0
BLOCK
5
1C
100
AcDbEntity
100
AcDbBlockBegin
2
*PAPER_SPACE
0
ENDBLK
5
1D
100
AcDbEntity
100
AcDbBlockEnd
0
ENDSEC
0
SECTION
2
ENTITIES
0
ARC
5
100
100
AcDbEntity
8
0
100
AcDbCircle
10
60
20
30.000000447034839
30
0
40
17.713203953922598
210
0
220
0
230
1
100
AcDbArc
50
314.54259906895032
51
315.00000056918236
0
CIRCLE
5
101
100
AcDbEntity
8
0
100
AcDbCircle
10
74.999999627470942
20
-14.999999776482582
30
-6.1232340869800769e-16
40
1.5000000223517418
210
0
220
0
230
1
0
LWPOLYLINE
5
102
100
AcDbEntity
8
0
100
AcDbPolyline
90
26
70
1
43
0.0
10
41.502796645231292
20
80.139888153159674
10
39.625894122245469
20
31.949224065454946
42
-0.27904785359386025
10
37.344855442240892
20
28.491645018359666
10
34.782630011560286
20
27.274845448637848
42
0.53907657942722498
10
33.051491720867162
20
14.864198658216697
42
-0.45272905512294292
10
33.051491720867162
20
-14.864198658216697
42
0.55451659555881849
10
35.108252747001799
20
-27.420101067016745
10
38.570596897068057
20
-28.866933489033137
42
-0.29978576401756729
10
41.028134034303754
20
-32.517919346037104
10
41.5001747633587
20
-80.034999442224191
42
0.60027549356666965
10
46.981131848055284
20
-82.885328853726179
42
-0.31026318092906247
10
73.018868151944716
20
-82.885328853726193
42
0.59688054671219082
10
78.499300433447445
20
-80.069987196291521
10
79.418115547939408
20
-32.215030492197265
42
-0.30371339363175831
10
81.962870994472809
20
-28.565637596347088
10
84.727202741896775
20
-27.486585441955079
42
0.56227701399969332
10
86.948509789689666
20
-14.864198414485726
42
-0.45272908479723167
10
86.948509789689666
20
14.864198414485726
42
0.53864901647678143
10
85.22634861543375
20
27.270575059230467
10
82.651412878667131
20
28.49759602938321
42
-0.27868403118909979
10
80.375165714279774
20
31.95279824796021
10
78.497203577832579
20
80.139888164498586
42
0.62739058229192157
10
72.71739174907799
20
82.653243025509951
42
-0.3709602795032233
10
62.282608896161015
20
82.653243854792009
42
0.37096032581747684
10
57.717391093487045
20
82.653243845886124
42
-0.3709602817224868
10
47.282608484791353
20
82.653243016604108
42
0.62739058478088716
0
CIRCLE
5
103
100
AcDbEntity
8
0
100
AcDbCircle
10
70.000000149011612
20
-10.000000149011614
30
0
40
1.5000000223517418
210
0
220
0
230
1
0
ARC
5
104
100
AcDbEntity
8
0
100
AcDbCircle
10
75.000000521540642
20
15.000000223517418
30
1.4973437623985181e-14
40
3.5000000085094718
210
-3.0250912460092787e-15
220
3.0250911859060783e-15
230
1
100
AcDbArc
50
135.00000056918273
51
137.25316261746985
0
CIRCLE
5
105
100
AcDbEntity
8
0
100
AcDbCircle
10
-44.999999627470906
20
-14.9999997764826
30
-4.8985871418434255e-15
40
1.5000000223517418
210
-1.2246467991473532e-16
220
1.4997597826618576e-32
230
-1
0
CIRCLE
5
106
100
AcDbEntity
8
0
100
AcDbCircle
10
75.000000223517404
20
-40.000000521540642
30
0
40
1.5000005252664987
210
0
220
0
230
1
0
LWPOLYLINE
5
107
100
AcDbEntity
8
0
100
AcDbPolyline
90
9
70
1
43
0.0
10
44.999999776482582
20
60.000000894069672
10
43.999999761581421
20
60.000000894069672
42
0.99999999999999989
10
43.999999761581421
20
58.3999964594841
10
43.999999761581421
20
51.599996984004974
42
1.0000009313230083
10
43.999999761581421
20
50.00000074505806
10
45.999999791383743
20
50.00000074505806
42
0.99999944319697653
10
45.999999043086113
20
51.599996984005394
10
45.999999648850533
20
58.3999964594841
42
0.99999999999999989
10
45.999999791383743
20
60.000000894069672
0
CIRCLE
5
108
100
AcDbEntity
8
0
100
AcDbCircle
10
44.999999776482582
20
-70.000000968575478
30
0
40
1.5000000223517418
210
0
220
0
230
1
0
CIRCLE
5
109
100
AcDbEntity
8
0
100
AcDbCircle
10
75.000000223517404
20
-70.000000968575478
30
0
40
1.5000000223517418
210
0
220
0
230
1
0
CIRCLE
5
110
100
AcDbEntity
8
0
100
AcDbCircle
10
44.999999627470935
20
15.000000223517382
30
-6.1232340869800769e-16
40
1.5000000223517418
210
0
220
0
230
1
0
ARC
5
111
100
AcDbEntity
8
0
100
AcDbCircle
10
76.000000238418593
20
-30.000000447034839
30
0
40
47.509999708154126
210
0
220
0
230
1
100
AcDbArc
50
94.309699997237416
51
94.315749112722642
0
CIRCLE
5
112
100
AcDbEntity
8
0
100
AcDbCircle
10
44.999999776482582
20
-40.000000521540642
30
0
40
1.5000000223517418
210
0
220
0
230
1
0
ARC
5
113
100
AcDbEntity
8
0
100
AcDbCircle
10
44.999999761581428
20
-30.000000447034829
30
0
40
47.500000707805185
210
0
220
-0
230
1
100
AcDbArc
50
86.962989173547726
51
86.964040725545303
0
CIRCLE
5
114
100
AcDbEntity
8
0
100
AcDbCircle
10
-75.000000521540642
20
15.000000223517418
30
-5.7885865665097262e-15
40
1.5000000223517418
210
1.2246467991473532e-16
220
0
230
-1
0
CIRCLE
5
115
100
AcDbEntity
8
0
100
AcDbCircle
10
70.000000149011612
20
10.000000149011614
30
0
40
1.5000000223517418
210
0
220
0
230
1
0
CIRCLE
5
116
100
AcDbEntity
8
0
100
AcDbCircle
10
49.999999850988388
20
10.000000149011614
30
0
40
1.4999999999999991
210
0
220
0
230
1
0
ARC
5
117
100
AcDbEntity
8
0
100
AcDbCircle
10
76.000000238418593
20
-30.000000447034839
30
0
40
11.53329708807963
210
0
220
0
230
1
100
AcDbArc
50
263.10578891074977
51
265.47302472972012
0
CIRCLE
5
118
100
AcDbEntity
8
0
100
AcDbCircle
10
49.999999850988388
20
-10.000000149011614
30
0
40
1.5000000223517418
210
0
220
0
230
1
0
LWPOLYLINE
5
119
100
AcDbEntity
8
0
100
AcDbPolyline
90
6
70
1
43
0.0
10
64.585787436004708
20
74.999999478459358
10
55.414214352134643
20
74.999999478459358
42
0.66817863791929344
10
54.707107570948097
20
73.292892697272805
10
58.585787331696579
20
69.414212936524322
42
0.4142135623730932
10
61.414214456442764
20
69.414212936524322
10
65.292894217191247
20
73.292892697272805
42
0.66817863791929344
0
LWPOLYLINE
5
120
100
AcDbEntity
8
0
100
AcDbPolyline
90
6
70
1
43
0.0
10
50.00000074505806
20
60.414212787512717
10
50.00000074505806
20
69.585785871382782
42
-0.66817863791929344
10
51.707107526244613
20
70.292892652569321
10
55.585787286993096
20
66.414212891820839
42
-0.4142135623730932
10
55.585787286993096
20
63.585785767074654
10
51.707107526244613
20
59.707106006326171
42
-0.66817863791929344
0
LWPOLYLINE
5
121
100
AcDbEntity
8
0
100
AcDbPolyline
90
6
70
1
43
0.0
10
50.00000074505806
20
40.414212489489493
10
50.00000074505806
20
49.585785573359551
42
-0.66817863791929344
10
51.707107526244613
20
50.292892354546098
10
55.585787286993096
20
46.414212593797615
42
-0.4142135623730932
10
55.585787286993096
20
43.58578546905143
10
51.707107526244613
20
39.707105708302947
42
-0.66817863791929344
0
LWPOLYLINE
5
122
100
AcDbEntity
8
0
100
AcDbPolyline
90
8
70
1
43
0.0
10
61.414214456442764
20
60.58578572237117
10
65.585787436004708
20
56.414212742809227
42
-0.4142135623730932
10
65.585787436004708
20
53.585785618063042
10
61.414214456442764
20
49.414212638501098
42
-0.4142135623730932
10
58.585787331696579
20
49.414212638501098
10
54.414214352134636
20
53.585785618063042
42
-0.4142135623730932
10
54.414214352134636
20
56.414212742809227
10
58.585787331696579
20
60.58578572237117
42
-0.4142135623730932
0
LWPOLYLINE
5
123
100
AcDbEntity
8
0
100
AcDbPolyline
90
6
70
1
43
0.0
10
68.29289426189473
20
59.707106006326171
10
64.414214501146247
20
63.585785767074654
42
-0.4142135623730932
10
64.414214501146247
20
66.414212891820839
10
68.29289426189473
20
70.292892652569321
42
-0.66817863791929344
10
70.000001043081284
20
69.585785871382782
10
70.000001043081284
20
60.414212787512717
42
-0.66817863791929344
0
LWPOLYLINE
5
124
100
AcDbEntity
8
0
100
AcDbPolyline
90
6
70
1
43
0.0
10
70.000001043081284
20
40.414212489489493
10
70.000001043081284
20
49.585785573359551
42
0.66817863791929344
10
68.29289426189473
20
50.292892354546098
10
64.414214501146247
20
46.414212593797615
42
0.4142135623730932
10
64.414214501146247
20
43.58578546905143
10
68.29289426189473
20
39.707105708302947
42
0.66817863791929344
0
LWPOLYLINE
5
125
100
AcDbEntity
8
0
100
AcDbPolyline
90
8
70
1
43
0.0
10
61.414214456442764
20
40.585785424347947
10
65.585787436004708
20
36.41421244478601
42
-0.41421356237309231
10
65.585787436004708
20
33.585785320039811
10
61.414214456442764
20
29.414212340477874
42
-0.41421356237309503
10
58.585787331696579
20
29.414212340477874
10
54.414214352134636
20
33.585785320039811
42
-0.41421356237309231
10
54.414214352134636
20
36.41421244478601
10
58.585787331696579
20
40.585785424347947
42
-0.4142135623730932
0
LWPOLYLINE
5
126
100
AcDbEntity
8
0
100
AcDbPolyline
90
6
70
1
43
0.0
10
61.414214158419526
20
-69.414214665059021
10
65.292893919168009
20
-73.292894425807503
42
-0.66817863791929888
10
64.585787137981455
20
-75.000001206994057
10
55.414214054111412
20
-75.000001206994057
42
-0.66817863791929988
10
54.707107272924844
20
-73.292894425807503
10
58.585787033673341
20
-69.414214665059021
42
-0.41421356237309875
0
LWPOLYLINE
5
127
100
AcDbEntity
8
0
100
AcDbPolyline
90
8
70
1
43
0.0
10
61.414214158419526
20
-49.414214367035797
10
65.585787137981455
20
-53.585787346597726
42
-0.41421356237309503
10
65.585787137981455
20
-56.414214471343925
10
61.414214158419526
20
-60.585787450905855
42
-0.41421356237309687
10
58.585787033673341
20
-60.585787450905855
10
54.414214054111397
20
-56.414214471343939
42
-0.4142135623730932
10
54.414214054111405
20
-53.585787346597726
10
58.585787033673341
20
-49.414214367035797
42
-0.41421356237309875
0
LWPOLYLINE
5
128
100
AcDbEntity
8
0
100
AcDbPolyline
90
8
70
1
43
0.0
10
58.585787033673341
20
-40.585787152882631
10
54.414214054111405
20
-36.414214173320694
42
-0.41421356237310053
10
54.414214054111405
20
-33.58578704857451
10
58.585787033673341
20
-29.414214069012576
42
-0.41421356237309276
10
61.41421415841954
20
-29.414214069012576
10
65.58578713798147
20
-33.58578704857451
42
-0.41421356237309592
10
65.58578713798147
20
-36.414214173320701
10
61.414214158419526
20
-40.585787152882638
42
-0.41421356237309592
0
CIRCLE
5
129
100
AcDbEntity
8
0
100
AcDbCircle
10
45
20
80
30
0
40
1.5000000000000036
210
0
220
0
230
1
0
CIRCLE
5
130
100
AcDbEntity
8
0
100
AcDbCircle
10
75.000000223517404
20
80
30
0
40
1.5000000000000036
210
0
220
0
230
1
0
CIRCLE
5
131
100
AcDbEntity
8
0
100
AcDbCircle
10
42.99999974668026
20
30.000000447034839
30
0
40
1.4999991282820702
210
0
220
0
230
1
0
CIRCLE
5
132
100
AcDbEntity
8
0
100
AcDbCircle
10
77.000000618144185
20
30.000000973697748
30
0
40
1.5000000000000036
210
0
220
0
230
1
0
CIRCLE
5
133
100
AcDbEntity
8
0
100
AcDbCircle
10
44.499999769032001
20
-30.000000447034839
30
0
40
1.4999991282820702
210
0
220
0
230
1
0
CIRCLE
5
134
100
AcDbEntity
8
0
100
AcDbCircle
10
76.000000238418593
20
-30.000000447034839
30
0
40
1.4999991282820879
210
0
220
0
230
1
0
CIRCLE
5
135
100
AcDbEntity
8
0
100
AcDbCircle
10
44.999999776482611
20
-80.00000119209291
30
0
40
1.4999991282820968
210
0
220
0
230
1
0
CIRCLE
5
136
100
AcDbEntity
8
0
100
AcDbCircle
10
75.000000223517404
20
-80.00000119209291
30
0
40
1.4999991282820613
210
0
220
0
230
1
0
LWPOLYLINE
5
137
100
AcDbEntity
8
0
100
AcDbPolyline
90
9
70
1
43
0.0
10
73.999999761581421
20
50.00000074505806
10
75.999999791383743
20
50.00000074505806
42
0.99999944319697653
10
75.99999904308612
20
51.599996984005394
10
75.999999648850533
20
58.3999964594841
42
0.99999999999999989
10
75.999999791383743
20
60.000000894069672
10
74.999999776482582
20
60.000000894069672
10
73.999999761581421
20
60.000000894069672
42
0.99999999999999989
10
73.999999761581421
20
58.3999964594841
10
73.999999761581421
20
51.599996984004974
42
1.0000009313230083
0
CIRCLE
5
138
100
AcDbEntity
8
0
100
AcDbCircle
10
82.000001221895218
20
20.500000305473804
30
1.4973437623985181e-14
40
1.5000000000000047
210
0
220
0
230
1
0
CIRCLE
5
139
100
AcDbEntity
8
0
100
AcDbCircle
10
38.000000566244125
20
-20.500000305473804
30
-6.1232340869800779e-16
40
1.4999999999999991
210
0
220
0
230
1
0
CIRCLE
5
140
100
AcDbEntity
8
0
100
AcDbCircle
10
38.000000566244125
20
20.500000305473804
30
-6.1232340869800769e-16
40
1.4999999999999991
210
0
220
0
230
1
0
CIRCLE
5
141
100
AcDbEntity
8
0
100
AcDbCircle
10
82.000001221895218
20
20.500000305473804
30
1.4973437623985181e-14
40
1.5000000000000036
210
0
220
0
230
1
0
CIRCLE
5
142
100
AcDbEntity
8
0
100
AcDbCircle
10
82.000001221895218
20
-20.500000305473804
30
-6.1232340869800769e-16
40
1.5000000000000016
210
0
220
0
230
1
0
CIRCLE
5
143
100
AcDbEntity
8
0
100
AcDbCircle
10
70.000000745058045
20
-65.000001057982445
30
0
40
1.5000000000000036
210
0
220
0
230
1
0
CIRCLE
5
144
100
AcDbEntity
8
0
100
AcDbCircle
10
70.000000745058045
20
-45.000000759959221
30
0
40
1.5000000000000016
210
0
220
0
230
1
0
CIRCLE
5
145
100
AcDbEntity
8
0
100
AcDbCircle
10
50.000000447034822
20
-65.000001057982445
30
0
40
1.5000000000000036
210
0
220
0
230
1
0
CIRCLE
5
146
100
AcDbEntity
8
0
100
AcDbCircle
10
50.000000447034822
20
-45.000000759959214
30
0
40
1.5000000000000049
210
0
220
0
230
1
0
ENDSEC
0
SECTION
2
OBJECTS
0
DICTIONARY
5
C
100
AcDbDictionary
3
ACAD_GROUP
350
D
3
ACAD_MLINESTYLE
350
17
0
DICTIONARY
5
D
100
AcDbDictionary
0
DICTIONARY
5
1A
330
C
100
AcDbDictionary
0
DICTIONARY
5
17
100
AcDbDictionary
0
ENDSEC
0
EOF
