0
SECTION
2
HEADER
9
$INSUNITS
70
4
9
$ACADVER
1
AC1014
9
$HANDSEED
5
FFFF
0
ENDSEC
0
SECTION
2
TABLES
0
TABLE
2
VPORT
5
8
100
AcDbSymbolTable
0
ENDTAB
0
TABLE
2
LTYPE
5
5
100
AcDbSymbolTable
0
LTYPE
5
14
100
AcDbSymbolTableRecord
100
AcDbLinetypeTableRecord
2
BYBLOCK
70
0
0
LTYPE
5
15
100
AcDbSymbolTableRecord
100
AcDbLinetypeTableRecord
2
BYLAYER
70
0
0
ENDTAB
0
TABLE
2
LAYER
5
2
100
AcDbSymbolTable
70
2
0
LAYER
5
50
100
AcDbSymbolTableRecord
100
AcDbLayerTableRecord
2
0
70
0
6
CONTINUOUS
0
ENDTAB
0
TABLE
2
STYLE
5
3
100
AcDbSymbolTable
70
1
0
STYLE
5
11
100
AcDbSymbolTableRecord
100
AcDbTextStyleTableRecord
2
STANDARD
70
0
0
ENDTAB
0
TABLE
2
VIEW
5
6
100
AcDbSymbolTable
70
0
0
ENDTAB
0
TABLE
2
UCS
5
7
100
AcDbSymbolTable
70
0
0
ENDTAB
0
TABLE
2
APPID
5
9
100
AcDbSymbolTable
70
2
0
APPID
5
12
100
AcDbSymbolTableRecord
100
AcDbRegAppTableRecord
2
ACAD
70
0
0
ENDTAB
0
TABLE
2
DIMSTYLE
5
A
100
AcDbSymbolTable
70
1
0
ENDTAB
0
TABLE
2
BLOCK_RECORD
5
1
100
AcDbSymbolTable
70
1
0
BLOCK_RECORD
5
1F
100
AcDbSymbolTableRecord
100
AcDbBlockTableRecord
2
*MODEL_SPACE
0
BLOCK_RECORD
5
1B
100
AcDbSymbolTableRecord
100
AcDbBlockTableRecord
2
*PAPER_SPACE
0
ENDTAB
0
ENDSEC
0
SECTION
2
BLOCKS
0
BLOCK
5
20
100
AcDbEntity
100
AcDbBlockBegin
2
*MODEL_SPACE
0
ENDBLK
5
21
100
AcDbEntity
100
AcDbBlockEnd
0
BLOCK
5
1C
100
AcDbEntity
100
AcDbBlockBegin
2
*PAPER_SPACE
0
ENDBLK
5
1D
100
AcDbEntity
100
AcDbBlockEnd
0
ENDSEC
0
SECTION
2
ENTITIES
0
LWPOLYLINE
5
100
100
AcDbEntity
8
0
100
AcDbPolyline
90
29
70
1
43
0.0
10
27.500000409781933
20
-2.500000037252903
10
27.500000409781933
20
0
42
-0.99999999999999989
10
29.500000439584255
20
0
10
44.000000655651093
20
0
10
44.000000655651093
20
5.0000000745058042
42
-0.28679622641132074
10
44.000000655651093
20
25.00000037252903
10
44.000000655651093
20
30.000000447034836
10
39.500000588595867
20
30.000000447034836
42
-0.99999999999999989
10
37.500000558793545
20
30.000000447034836
10
37.500000558793545
20
32.500000484287739
10
27.500000409781933
20
32.500000484287739
10
27.500000409781933
20
30.000000447034836
42
-0.14056478739971529
10
27.34799871152202
20
29.470001499134064
42
-0.55424764150707562
10
17.652001959030233
20
29.470001499134057
42
-0.14056478739971529
10
17.500000260770321
20
30.000000447034836
10
17.500000260770321
20
32.500000484287739
10
7.500000111758709
20
32.500000484287739
10
7.500000111758709
20
30.000000447034836
42
-0.99999999999999989
10
5.5000000819563866
20
30.000000447034836
10
1
20
30.000000447034836
10
0.99999999999999978
20
25.00912758068198
42
-0.30878033237047714
10
1.0000000000000009
20
9.9908728663528592
10
0.99999999999999978
20
4.9999999999999991
10
2.9999999329447746
20
4.9999999999999991
42
-0.41421356237309503
10
4.0000000223517409
20
3.9999999105930328
10
4.0000000596046448
20
0
10
15.500000230967999
20
0
42
-0.99999999999999989
10
17.500000260770321
20
0
10
17.500000260770321
20
-2.500000037252903
0
LWPOLYLINE
5
101
100
AcDbEntity
8
0
100
AcDbPolyline
90
6
70
1
43
0.0
10
31.699514907144501
20
25.00000037252903
10
38.300486135936779
20
25.00000037252903
42
-0.5718632156807465
10
39.174643412058316
20
23.514357441350391
10
35.874157797662178
20
17.573483335437349
42
-0.58840334899855762
10
34.125843245419105
20
17.573483335437345
10
30.825357631022968
20
23.514357441350398
42
-0.57186321568075371
0
LWPOLYLINE
5
102
100
AcDbEntity
8
0
100
AcDbPolyline
90
6
70
1
43
0.0
10
34.125843245419105
20
12.426517111597486
10
30.825357631022964
20
6.485643005684441
42
0.57186321568074583
10
31.699514907144504
20
5.000000074505806
10
38.300486135936779
20
5.0000000745058095
42
0.57186321568075205
10
39.174643412058316
20
6.4856430056844374
10
35.874157797662178
20
12.426517111597486
42
0.58840334899855817
0
LWPOLYLINE
5
103
100
AcDbEntity
8
0
100
AcDbPolyline
90
6
70
1
43
0.0
10
9.0000001192092896
20
5.0000000745058077
10
10.566493224183322
20
5.0000000745058077
42
0.67021015103418635
10
11.269620175437822
20
6.711064410849259
10
9.703127070463788
20
8.2600712513914285
42
0.66615093055440089
10
8.0000001192092896
20
7.5490069150479764
10
8.0000001192092896
20
6.0000000745058077
42
0.41421356237309503
0
LWPOLYLINE
5
104
100
AcDbEntity
8
0
100
AcDbPolyline
90
6
70
1
43
0.0
10
9.5812383129283862
20
21.129456150679719
10
12.460773363827986
20
23.186266901322291
42
0.72962915686792584
10
11.879535170108891
20
25.00000037252903
10
9.0000001192092896
20
25.00000037252903
42
0.41421356237309243
10
8.0000001192092896
20
24.00000037252903
10
8.0000001192092913
20
21.943189621886457
42
0.61002941749321504
0
CIRCLE
5
105
100
AcDbEntity
8
0
100
AcDbCircle
10
20.000000298023224
20
15.000000223517418
30
0
40
1.0000000000000009
210
0
220
0
230
1
0
LWPOLYLINE
5
106
100
AcDbEntity
8
0
100
AcDbPolyline
90
4
70
1
43
0.0
10
20.000000298023224
20
9.7000002235174172
42
-0.41421356237309503
10
14.700000298023223
20
15.000000223517418
42
0.99999999999999989
10
12.700000298023227
20
15.000000223517418
42
0.41421356237309503
10
20.000000298023224
20
7.7000002235174207
42
0.99999999999999989
0
LWPOLYLINE
5
107
100
AcDbEntity
8
0
100
AcDbPolyline
90
4
70
1
43
0.0
10
20.000000298023224
20
20.300000223517422
42
-0.41421356237309503
10
25.300000298023228
20
15.000000223517418
42
0.99999999999999989
10
27.300000298023221
20
15.000000223517418
42
0.41421356237309503
10
20.000000298023224
20
22.300000223517415
42
0.99999999999999989
0
ENDSEC
0
SECTION
2
OBJECTS
0
DICTIONARY
5
C
100
AcDbDictionary
3
ACAD_GROUP
350
D
3
ACAD_MLINESTYLE
350
17
0
DICTIONARY
5
D
100
AcDbDictionary
0
DICTIONARY
5
1A
330
C
100
AcDbDictionary
0
DICTIONARY
5
17
100
AcDbDictionary
0
ENDSEC
0
EOF
