0
SECTION
2
HEADER
9
$INSUNITS
70
4
9
$ACADVER
1
AC1014
9
$HANDSEED
5
FFFF
0
ENDSEC
0
SECTION
2
TABLES
0
TABLE
2
VPORT
5
8
100
AcDbSymbolTable
0
ENDTAB
0
TABLE
2
LTYPE
5
5
100
AcDbSymbolTable
0
LTYPE
5
14
100
AcDbSymbolTableRecord
100
AcDbLinetypeTableRecord
2
BYBLOCK
70
0
0
LTYPE
5
15
100
AcDbSymbolTableRecord
100
AcDbLinetypeTableRecord
2
BYLAYER
70
0
0
ENDTAB
0
TABLE
2
LAYER
5
2
100
AcDbSymbolTable
70
2
0
LAYER
5
50
100
AcDbSymbolTableRecord
100
AcDbLayerTableRecord
2
0
70
0
6
CONTINUOUS
0
ENDTAB
0
TABLE
2
STYLE
5
3
100
AcDbSymbolTable
70
1
0
STYLE
5
11
100
AcDbSymbolTableRecord
100
AcDbTextStyleTableRecord
2
STANDARD
70
0
0
ENDTAB
0
TABLE
2
VIEW
5
6
100
AcDbSymbolTable
70
0
0
ENDTAB
0
TABLE
2
UCS
5
7
100
AcDbSymbolTable
70
0
0
ENDTAB
0
TABLE
2
APPID
5
9
100
AcDbSymbolTable
70
2
0
APPID
5
12
100
AcDbSymbolTableRecord
100
AcDbRegAppTableRecord
2
ACAD
70
0
0
ENDTAB
0
TABLE
2
DIMSTYLE
5
A
100
AcDbSymbolTable
70
1
0
ENDTAB
0
TABLE
2
BLOCK_RECORD
5
1
100
AcDbSymbolTable
70
1
0
BLOCK_RECORD
5
1F
100
AcDbSymbolTableRecord
100
AcDbBlockTableRecord
2
*MODEL_SPACE
0
BLOCK_RECORD
5
1B
100
AcDbSymbolTableRecord
100
AcDbBlockTableRecord
2
*PAPER_SPACE
0
ENDTAB
0
ENDSEC
0
SECTION
2
BLOCKS
0
BLOCK
5
20
100
AcDbEntity
100
AcDbBlockBegin
2
*MODEL_SPACE
0
ENDBLK
5
21
100
AcDbEntity
100
AcDbBlockEnd
0
BLOCK
5
1C
100
AcDbEntity
100
AcDbBlockBegin
2
*PAPER_SPACE
0
ENDBLK
5
1D
100
AcDbEntity
100
AcDbBlockEnd
0
ENDSEC
0
SECTION
2
ENTITIES
0
LWPOLYLINE
5
100
100
AcDbEntity
8
0
100
AcDbPolyline
90
9
70
1
43
0.0
10
-13.999999741974785
20
68.399996012449094
10
-14.000000208616257
20
61.599996536970139
42
-0.99999999999999989
10
-14.000000208616257
20
60.00000074505806
10
-16.000000238341762
20
60.00000074505806
42
-0.99999959512426195
10
-15.999999694202106
20
61.599996536970359
10
-16.000000134758036
20
68.399996012449265
42
-0.99999999999999989
10
-16.000000238418579
20
70.000000894069672
10
-15.000000223517418
20
70.000000894069672
10
-14.000000208712585
20
70.000000894069672
42
-1.0000003603340526
0
LINE
5
101
100
AcDbEntity
8
0
100
AcDbLine
10
-11.499999298880873
20
80.000007110413208
30
0
11
-11.499999298880873
21
70.00000103610104
31
0
0
LINE
5
102
100
AcDbEntity
8
0
100
AcDbLine
10
11.500000583695222
20
79.999999954221352
30
0
11
11.500000543238311
21
70.00000098613225
31
0
0
ARC
5
103
100
AcDbEntity
8
0
100
AcDbCircle
10
7.0111912275905297e-07
20
70.00000103610104
30
0
40
11.499999999999995
210
0
220
0
230
1
100
AcDbArc
50
180
51
360
0
LINE
5
104
100
AcDbEntity
8
0
100
AcDbLine
10
-20.497131391000902
20
30.13990874609258
30
0
11
-18.497099104825029
21
80.139895467977766
31
0
0
ARC
5
105
100
AcDbEntity
8
0
100
AcDbCircle
10
-14.999947549248642
20
80.000007110413208
30
0
40
3.4999482503677704
210
0
220
0
230
1
100
AcDbArc
50
0
51
177.70935241157909
0
LINE
5
106
100
AcDbEntity
8
0
100
AcDbLine
10
20.497204008331252
20
30.139889129991992
30
0
11
18.497203702943381
21
80.139888112272999
31
0
0
SPLINE
5
107
100
AcDbEntity
8
0
100
AcDbSpline
70
4
71
5
72
21
73
15
74
0
42
0.000000001
43
0.0000000001
44
0.0000000001
40
0
40
0
40
0
40
0
40
0
40
0
40
0.10000000000000001
40
0.20000000000000001
40
0.30000000000000004
40
0.40000000000000002
40
0.5
40
0.59999999999999998
40
0.69999999999999996
40
0.79999999999999993
40
0.89999999999999991
40
1
40
1
40
1
40
1
40
1
40
1
41
1
41
1
41
1
41
1
41
1
41
1
41
1
41
1
41
1
41
1
41
1
41
1
41
1
41
1
41
1
10
-20.497131391000902
20
30.13990874609258
30
0
10
-20.497686450716671
20
29.123063403427093
30
0
10
-20.403923842743378
20
27.219627565978293
30
0
10
-19.978852944593402
20
24.752846961440518
30
0
10
-18.944150085873865
20
21.892901002718304
30
0
10
-17.405951587112426
20
17.252624623286501
30
0
10
-16.202651214413638
20
10.203706585245527
30
0
10
-15.7991078579433
20
0.14633027406660779
30
0
10
-16.211987782573654
20
-9.9928179522393616
30
0
10
-17.079841510455434
20
-17.157466321286783
30
0
10
-18.075230013734821
20
-21.891120238625174
30
0
10
-18.694593231597565
20
-24.757368682444909
30
0
10
-18.94449822245911
20
-27.174912266466769
30
0
10
-19.000000283122063
20
-29.019253167330632
30
0
10
-19.000000283122063
20
-30.000000447034836
30
0
0
SPLINE
5
108
100
AcDbEntity
8
0
100
AcDbSpline
70
4
71
5
72
21
73
15
74
0
42
0.000000001
43
0.0000000001
44
0.0000000001
40
0
40
0
40
0
40
0
40
0
40
0
40
0.10000000000000001
40
0.20000000000000001
40
0.30000000000000004
40
0.40000000000000002
40
0.5
40
0.59999999999999998
40
0.69999999999999996
40
0.79999999999999993
40
0.89999999999999991
40
1
40
1
40
1
40
1
40
1
40
1
41
1
41
1
41
1
41
1
41
1
41
1
41
1
41
1
41
1
41
1
41
1
41
1
41
1
41
1
41
1
10
20.500000653893864
20
30.000000965559778
30
0
10
20.500000584819425
20
29.00874857103242
30
0
10
20.406627201818214
20
27.151564565296027
30
0
10
19.986588373757201
20
24.739301734874104
30
0
10
18.963754769206233
20
21.921641464500077
30
0
10
17.430348480689592
20
17.280025812180689
30
0
10
16.214963224214259
20
10.186917565993493
30
0
10
15.786175864392044
20
0.059419526319489865
30
0
10
16.225983734472962
20
-10.09909546808335
30
0
10
17.218786277671324
20
-17.235293815769928
30
0
10
18.388322583553606
20
-21.916584965009832
30
0
10
19.131503763906174
20
-24.749789284916961
30
0
10
19.433016685836652
20
-27.161812026228439
30
0
10
19.500000281692703
20
-29.013113128849195
30
0
10
19.500000284758087
20
-30.000000483503477
30
0
0
ARC
5
109
100
AcDbEntity
8
0
100
AcDbCircle
10
17.00000065389386
20
30.000000968549209
30
0
40
3.5000000000000031
210
0
220
0
230
1
100
AcDbArc
50
0
51
2.290610488620676
0
ARC
5
110
100
AcDbEntity
8
0
100
AcDbCircle
10
-16.999928276107894
20
30.000014596136886
30
0
40
3.5000000000013127
210
0
220
0
230
1
100
AcDbArc
50
177.70929139969138
51
182.90564872104289
0
SPLINE
5
111
100
AcDbEntity
8
0
100
AcDbSpline
70
4
71
5
72
21
73
15
74
0
42
0.000000001
43
0.0000000001
44
0.0000000001
40
0
40
0
40
0
40
0
40
0
40
0
40
0.10000000000000001
40
0.20000000000000001
40
0.30000000000000004
40
0.40000000000000002
40
0.5
40
0.59999999999999998
40
0.69999999999999996
40
0.79999999999999993
40
0.89999999999999991
40
1
40
1
40
1
40
1
40
1
40
1
41
1
41
1
41
1
41
1
41
1
41
1
41
1
41
1
41
1
41
1
41
1
41
1
41
1
41
1
41
1
10
-19.000000283122063
20
-30.000000447034836
30
0
10
-19.000000283122063
20
-30.986147725849985
30
0
10
-18.938239269610332
20
-32.835654249889245
30
0
10
-18.660391179981143
20
-35.243299446120709
30
0
10
-17.983008663355712
20
-37.977477030247258
30
0
10
-16.962594760594758
20
-41.925275549179126
30
0
10
-16.148065868195115
20
-47.424565312022878
30
0
10
-15.853061510955214
20
-54.977114147780178
30
0
10
-16.154904283551822
20
-62.541846730487876
30
0
10
-16.858392555776714
20
-68.058852482562187
30
0
10
-17.696314795631395
20
-72.022884977823551
30
0
10
-18.233212785188897
20
-74.762660182386568
30
0
10
-18.451499844137402
20
-77.16870224027528
30
0
10
-18.499999548161817
20
-79.014315072059645
30
0
10
-18.499999538770837
20
-79.997811848482158
30
0
0
SPLINE
5
112
100
AcDbEntity
8
0
100
AcDbSpline
70
4
71
5
72
21
73
15
74
0
42
0.000000001
43
0.0000000001
44
0.0000000001
40
0
40
0
40
0
40
0
40
0
40
0
40
0.10000000000000001
40
0.20000000000000001
40
0.30000000000000004
40
0.40000000000000002
40
0.5
40
0.59999999999999998
40
0.69999999999999996
40
0.79999999999999993
40
0.89999999999999991
40
1
40
1
40
1
40
1
40
1
40
1
41
1
41
1
41
1
41
1
41
1
41
1
41
1
41
1
41
1
41
1
41
1
41
1
41
1
41
1
41
1
10
19.500000284758087
20
-30.000000483503477
30
0
10
19.500000142250869
20
-30.988786296477812
30
0
10
19.42656124702243
20
-32.84165912060007
30
0
10
19.09622283966581
20
-35.248636494478561
30
0
10
18.2930516435793
20
-37.97307201349642
30
0
10
17.09659369746479
20
-41.907378211139566
30
0
10
16.157648252340056
20
-47.403305152119103
30
0
10
15.839631704943253
20
-54.96967787415285
30
0
10
16.173040009467645
20
-62.550558197753041
30
0
10
16.890251923916775
20
-68.067183005871513
30
0
10
17.721011691611437
20
-72.024761804322452
30
0
10
18.242311289065917
20
-74.767082891125511
30
0
10
18.453048636442663
20
-77.187573167641773
30
0
10
18.499788920804136
20
-79.049551279486948
30
0
10
18.49973707485232
20
-80.04291748487546
30
0
0
ARC
5
113
100
AcDbEntity
8
0
100
AcDbCircle
10
-3.7608904879249394e-08
20
-101.84605385285306
30
0
40
23.000000423282295
210
0
220
-0
230
1
100
AcDbArc
50
55.525615395984353
51
124.47438446903739
0
ARC
5
114
100
AcDbEntity
8
0
100
AcDbCircle
10
-15.000000223517397
20
-80.00000119209291
30
0
40
3.4999999999999982
210
0
220
0
230
1
100
AcDbArc
50
179.96415995515207
51
304.47438446903732
0
ARC
5
115
100
AcDbEntity
8
0
100
AcDbCircle
10
15.000000199764864
20
-80.000001227430147
30
0
40
3.4999999999999738
210
0
220
0
230
1
100
AcDbArc
50
-124.47438460401581
51
0.80321469957348679
0
ARC
5
116
100
AcDbEntity
8
0
100
AcDbCircle
10
-15.500000230967999
20
-30.000000447034836
30
0
40
3.5000000521540642
210
0
220
0
230
1
100
AcDbArc
50
180
51
180
0
ARC
5
117
100
AcDbEntity
8
0
100
AcDbCircle
10
16.00000023260402
20
-30.000000482730837
30
0
40
3.5000000521540686
210
0
220
0
230
1
100
AcDbArc
50
360
51
360
0
CIRCLE
5
118
100
AcDbEntity
8
0
100
AcDbCircle
10
-14.999947549248642
20
80.000007110413208
30
0
40
1.5000000000000013
210
0
220
0
230
1
0
CIRCLE
5
119
100
AcDbEntity
8
0
100
AcDbCircle
10
-16.999928276107894
20
30.000014596136886
30
0
40
1.5000000000000013
210
0
220
0
230
1
0
CIRCLE
5
120
100
AcDbEntity
8
0
100
AcDbCircle
10
17.00000065389386
20
30.000000968549209
30
0
40
1.5000000000000013
210
0
220
0
230
1
0
CIRCLE
5
121
100
AcDbEntity
8
0
100
AcDbCircle
10
-15.500000230967999
20
-30.000000447034836
30
0
40
1.5000000223517418
210
0
220
0
230
1
0
CIRCLE
5
122
100
AcDbEntity
8
0
100
AcDbCircle
10
16.00000023260402
20
-30.000000482730837
30
0
40
1.5000000000000013
210
0
220
0
230
1
0
CIRCLE
5
123
100
AcDbEntity
8
0
100
AcDbCircle
10
-15.000000223517397
20
-80.00000119209291
30
0
40
1.500000022351764
210
0
220
0
230
1
0
CIRCLE
5
124
100
AcDbEntity
8
0
100
AcDbCircle
10
15.000000199764864
20
-80.000001227430147
30
0
40
1.5000000000000013
210
0
220
0
230
1
0
ARC
5
125
100
AcDbEntity
8
0
100
AcDbCircle
10
15.000000509801348
20
79.999999954221352
30
0
40
3.4999998386979825
210
0
220
-0
230
1
100
AcDbArc
50
2.2906105386847511
51
180
0
CIRCLE
5
126
100
AcDbEntity
8
0
100
AcDbCircle
10
15.000000509801348
20
79.999999954221352
30
0
40
1.4999999999999991
210
0
220
0
230
1
0
LWPOLYLINE
5
127
100
AcDbEntity
8
0
100
AcDbPolyline
90
6
70
1
43
0.0
10
4.5857865419350352
20
-75.00000111758709
10
-4.5857865419350343
20
-75.00000111758709
42
-0.66817863791930387
10
-5.2928933231215822
20
-73.292894336400551
10
-1.4142135623730989
20
-69.414214575652068
42
-0.41421356237309531
10
1.4142135623730967
20
-69.414214575652053
10
5.2928933231215858
20
-73.292894336400551
42
-0.66817863791930387
0
LWPOLYLINE
5
128
100
AcDbEntity
8
0
100
AcDbPolyline
90
8
70
1
43
0.0
10
-1.4142135623731034
20
50.585787212487283
10
-5.5857865419350361
20
46.414214232925346
42
0.41421356237309759
10
-5.5857865419350361
20
43.585787108179161
10
-1.4142135623730976
20
39.414214128617225
42
0.41421356237309509
10
1.4142135623730967
20
39.414214128617225
10
5.5857865419350317
20
43.585787108179161
42
0.41421356237309592
10
5.5857865419350317
20
46.414214232925346
10
1.4142135623730903
20
50.58578721248729
42
0.41421356237309503
0
LWPOLYLINE
5
129
100
AcDbEntity
8
0
100
AcDbPolyline
90
6
70
1
43
0.0
10
-4.7071068258900333
20
53.292894038377327
10
-8.2928933678250623
20
49.707107496442291
42
-0.66817863791929999
10
-10.000000149011615
20
50.414214277628837
10
-10.000000149011612
20
53.000000819563866
42
-0.41421356237309209
10
-8.0000001490116119
20
55.000000819563866
10
-5.4142136070765812
20
55.000000819563866
42
-0.66817863791930387
0
LWPOLYLINE
5
130
100
AcDbEntity
8
0
100
AcDbPolyline
90
6
70
1
43
0.0
10
8.2928933678250623
20
49.707107496442291
10
4.707106825890027
20
53.292894038377327
42
-0.66817863791930499
10
5.4142136070765705
20
55.000000819563859
10
8.0000001490116119
20
55.000000819563866
42
-0.41421356237309209
10
10.000000149011612
20
53.000000819563866
10
10.000000149011614
20
50.414214277628837
42
-0.66817863791929344
0
LWPOLYLINE
5
131
100
AcDbEntity
8
0
100
AcDbPolyline
90
6
70
1
43
0.0
10
-4.4142136070765767
20
33.585786959167542
10
-8.2928933678250658
20
29.70710719841906
42
-0.66817863791930188
10
-10.000000149011608
20
30.414213979605606
10
-10.00000014901161
20
39.585787063475678
42
-0.66817863791929744
10
-8.2928933678250658
20
40.292893844662231
10
-4.4142136070765767
20
36.414214083913741
42
-0.4142135623730962
0
LWPOLYLINE
5
132
100
AcDbEntity
8
0
100
AcDbPolyline
90
6
70
1
43
0.0
10
4.4142136070765767
20
33.585786959167542
10
8.2928933678250658
20
29.70710719841906
42
0.66817863791930188
10
10.000000149011608
20
30.414213979605606
10
10.00000014901161
20
39.585787063475678
42
0.66817863791929744
10
8.2928933678250658
20
40.292893844662231
10
4.4142136070765767
20
36.414214083913741
42
0.4142135623730962
0
LWPOLYLINE
5
133
100
AcDbEntity
8
0
100
AcDbPolyline
90
8
70
1
43
0.0
10
-1.4142135623730945
20
30.585786914464066
10
-5.5857865419350343
20
26.414213934902126
42
0.41421356237309626
10
-5.5857865419350325
20
23.585786810155934
10
-1.4142135623730967
20
19.414213830593997
42
0.4142135623730932
10
1.4142135623730967
20
19.414213830593997
10
5.5857865419350325
20
23.585786810155934
42
0.41421356237309626
10
5.5857865419350343
20
26.414213934902126
10
1.4142135623730954
20
30.585786914464062
42
0.41421356237309698
0
LWPOLYLINE
5
134
100
AcDbEntity
8
0
100
AcDbPolyline
90
6
70
1
43
0.0
10
4.4142136070765776
20
13.585786661144322
10
8.2928933678250658
20
9.7071069003958357
42
0.66817863791929821
10
10.00000014901161
20
10.414213681582385
10
10.00000014901161
20
19.585786765452454
42
0.66817863791930066
10
8.2928933678250658
20
20.292893546639
10
4.4142136070765767
20
16.41421378589051
42
0.41421356237309492
0
LWPOLYLINE
5
135
100
AcDbEntity
8
0
100
AcDbPolyline
90
6
70
1
43
0.0
10
-4.4142136070765776
20
13.585786661144322
10
-8.2928933678250658
20
9.7071069003958357
42
-0.66817863791929821
10
-10.00000014901161
20
10.414213681582385
10
-10.00000014901161
20
19.585786765452454
42
-0.66817863791930066
10
-8.2928933678250658
20
20.292893546639
10
-4.4142136070765776
20
16.41421378589051
42
-0.41421356237309492
0
LWPOLYLINE
5
136
100
AcDbEntity
8
0
100
AcDbPolyline
90
8
70
1
43
0.0
10
1.4142135623730956
20
10.585786616440839
10
5.5857865419350317
20
6.4142136368789
42
-0.41421356237309609
10
5.5857865419350317
20
3.5857865121327115
10
1.4142135623730958
20
-0.58578646742922591
42
-0.41421356237309481
10
-1.4142135623730956
20
-0.5857864674292268
10
-5.5857865419350325
20
3.5857865121327115
42
-0.41421356237309437
10
-5.5857865419350317
20
6.4142136368789018
10
-1.4142135623730954
20
10.585786616440839
42
-0.41421356237309659
0
LWPOLYLINE
5
137
100
AcDbEntity
8
0
100
AcDbPolyline
90
8
70
1
43
0.0
10
1.4142135623730945
20
-9.4142136815823836
10
5.5857865419350343
20
-13.585786661144322
42
-0.41421356237309626
10
5.5857865419350343
20
-16.414213785890517
10
1.4142135623730954
20
-20.585786765452454
42
-0.41421356237309465
10
-1.4142135623730945
20
-20.585786765452454
10
-5.5857865419350343
20
-16.414213785890514
42
-0.41421356237309559
10
-5.5857865419350343
20
-13.585786661144324
10
-1.4142135623730947
20
-9.4142136815823836
42
-0.41421356237309503
0
LWPOLYLINE
5
138
100
AcDbEntity
8
0
100
AcDbPolyline
90
6
70
1
43
0.0
10
-8.2928933678250658
20
0.29289324861577537
10
-4.4142136070765794
20
-3.5857865121327084
42
-0.41421356237309492
10
-4.4142136070765776
20
-6.4142136368789
10
-8.2928933678250658
20
-10.29289339762739
42
-0.6681786379192981
10
-10.000000149011612
20
-9.5857866164408385
10
-10.000000149011612
20
-0.41421353257077231
42
-0.6681786379192991
0
LWPOLYLINE
5
139
100
AcDbEntity
8
0
100
AcDbPolyline
90
6
70
1
43
0.0
10
4.4142136070765767
20
-6.4142136368789036
10
8.2928933678250676
20
-10.29289339762739
42
0.66817863791930066
10
10.000000149011612
20
-9.5857866164408438
10
10.000000149011612
20
-0.41421353257077181
42
0.66817863791929888
10
8.2928933678250658
20
0.29289324861577537
10
4.4142136070765767
20
-3.5857865121327128
42
0.41421356237309503
0
LWPOLYLINE
5
140
100
AcDbEntity
8
0
100
AcDbPolyline
90
6
70
1
43
0.0
10
-4.4142136070765767
20
-26.414213934902126
10
-8.2928933678250658
20
-30.292893695650612
42
-0.66817863791930188
10
-10.000000149011608
20
-29.585786914464066
10
-10.000000149011612
20
-20.414213830593994
42
-0.66817863791929921
10
-8.2928933678250658
20
-19.707107049407448
10
-4.4142136070765767
20
-23.585786810155934
42
-0.4142135623730962
0
LWPOLYLINE
5
141
100
AcDbEntity
8
0
100
AcDbPolyline
90
8
70
1
43
0.0
10
-1.4142135623730945
20
-29.414213979605606
10
-5.5857865419350343
20
-33.585786959167542
42
0.41421356237309576
10
-5.5857865419350343
20
-36.414214083913741
10
-1.4142135623730947
20
-40.585787063475678
42
0.41421356237309181
10
1.4142135623730945
20
-40.585787063475678
10
5.5857865419350343
20
-36.414214083913741
42
0.41421356237309576
10
5.5857865419350343
20
-33.585786959167542
10
1.4142135623730945
20
-29.414213979605606
42
0.41421356237309459
0
LWPOLYLINE
5
142
100
AcDbEntity
8
0
100
AcDbPolyline
90
6
70
1
43
0.0
10
8.2928933678250623
20
-19.707107049407451
10
4.4142136070765776
20
-23.585786810155934
42
0.41421356237309576
10
4.4142136070765758
20
-26.414213934902122
10
8.2928933678250658
20
-30.292893695650612
42
0.66817863791930188
10
10.00000014901161
20
-29.585786914464066
10
10.000000149011612
20
-20.414213830594001
42
0.66817863791929888
0
LWPOLYLINE
5
143
100
AcDbEntity
8
0
100
AcDbPolyline
90
6
70
1
43
0.0
10
4.4142136070765767
20
-46.414214232925346
10
8.292893367825064
20
-50.292893993673829
42
0.66817863791929999
10
10.000000149011615
20
-49.585787212487283
10
10.000000149011615
20
-40.414214128617218
42
0.66817863791929921
10
8.2928933678250694
20
-39.707107347430664
10
4.4142136070765767
20
-43.585787108179161
42
0.4142135623730962
0
LWPOLYLINE
5
144
100
AcDbEntity
8
0
100
AcDbPolyline
90
8
70
1
43
0.0
10
1.4142135623730967
20
-49.414214277628837
10
5.5857865419350343
20
-53.585787257190773
42
-0.41421356237309592
10
5.5857865419350343
20
-56.414214381936958
10
1.4142135623730969
20
-60.585787361498902
42
-0.41421356237309231
10
-1.4142135623730967
20
-60.585787361498902
10
-5.5857865419350361
20
-56.414214381936958
42
-0.41421356237309592
10
-5.5857865419350361
20
-53.585787257190773
10
-1.4142135623730985
20
-49.41421427762883
42
-0.41421356237309515
0
LWPOLYLINE
5
145
100
AcDbEntity
8
0
100
AcDbPolyline
90
6
70
1
43
0.0
10
-8.2928933678250623
20
-39.707107347430679
10
-4.4142136070765776
20
-43.585787108179161
42
-0.41421356237309587
10
-4.4142136070765767
20
-46.414214232925346
10
-8.2928933678250623
20
-50.292893993673829
42
-0.66817863791929999
10
-10.000000149011615
20
-49.585787212487283
10
-10.000000149011612
20
-40.414214128617225
42
-0.66817863791929966
0
LWPOLYLINE
5
146
100
AcDbEntity
8
0
100
AcDbPolyline
90
6
70
1
43
0.0
10
-10.000000149011615
20
-69.585787510510514
10
-10.000000149011614
20
-60.414214426640449
42
-0.66817863791929955
10
-8.2928933678250658
20
-59.707107645453902
10
-4.4142136070765794
20
-63.585787406202385
42
-0.4142135623730962
10
-4.4142136070765794
20
-66.41421453094857
10
-8.2928933678250658
20
-70.292894291697053
42
-0.66817863791929999
0
LWPOLYLINE
5
147
100
AcDbEntity
8
0
100
AcDbPolyline
90
6
70
1
43
0.0
10
10.000000149011612
20
-60.414214426640449
10
10.000000149011615
20
-69.585787510510514
42
-0.66817863791929999
10
8.292893367825064
20
-70.292894291697053
10
4.4142136070765776
20
-66.41421453094857
42
-0.41421356237309587
10
4.4142136070765776
20
-63.585787406202385
10
8.2928933678250623
20
-59.707107645453902
42
-0.66817863791929344
0
LWPOLYLINE
5
148
100
AcDbEntity
8
0
100
AcDbPolyline
90
9
70
1
43
0.0
10
-16.000000238418579
20
50.000000894069672
10
-15.000000223517418
20
50.000000894069672
10
-14.000000208712585
20
50.000000894069672
42
-1.0000003603340526
10
-13.999999741974785
20
48.399996012449094
10
-14.000000208616257
20
41.599996536970139
42
-0.99999999999999989
10
-14.000000208616257
20
40.00000074505806
10
-16.000000238341762
20
40.00000074505806
42
-0.99999959512426195
10
-15.999999694202106
20
41.599996536970359
10
-16.000000134758036
20
48.399996012449265
42
-0.99999999999999989
0
LWPOLYLINE
5
149
100
AcDbEntity
8
0
100
AcDbPolyline
90
9
70
1
43
0.0
10
15.999999791383743
20
41.599996536970139
42
-0.99999999999999989
10
15.999999791383743
20
40.00000074505806
10
13.999999761658238
20
40.00000074505806
42
-0.99999959512426195
10
14.000000305797894
20
41.599996536970359
10
13.999999865241964
20
48.399996012449265
42
-0.99999999999999989
10
13.999999761581421
20
50.000000894069672
10
14.999999776482582
20
50.000000894069672
10
15.999999791287415
20
50.000000894069672
42
-1.0000003603340526
10
16.000000258025217
20
48.399996012449094
0
LWPOLYLINE
5
150
100
AcDbEntity
8
0
100
AcDbPolyline
90
9
70
1
43
0.0
10
15.999999791383743
20
70.000000894069672
10
14.999999776482582
20
70.000000894069672
10
13.999999761581421
20
70.000000894069672
42
0.99999999999999989
10
13.999999865241964
20
68.399996012449265
10
14.000000305797894
20
61.599996536970359
42
0.99999959512426195
10
13.999999761581421
20
60.00000074505806
10
15.999999791383743
20
60.00000074505806
42
0.99999999999999989
10
15.999999791383743
20
61.599996536970139
10
16.000000258025217
20
68.399996012449094
42
1.0000003603340526
0
ENDSEC
0
SECTION
2
OBJECTS
0
DICTIONARY
5
C
100
AcDbDictionary
3
ACAD_GROUP
350
D
3
ACAD_MLINESTYLE
350
17
0
DICTIONARY
5
D
100
AcDbDictionary
0
DICTIONARY
5
1A
330
C
100
AcDbDictionary
0
DICTIONARY
5
17
100
AcDbDictionary
0
ENDSEC
0
EOF
